<?xml version="1.0" encoding="utf-8"?>
<!-- Generator: Adobe Illustrator 18.0.0, SVG Export Plug-In . SVG Version: 6.00 Build 0)  -->
<!DOCTYPE svg PUBLIC "-//W3C//DTD SVG 1.1//EN" "http://www.w3.org/Graphics/SVG/1.1/DTD/svg11.dtd">
<svg version="1.1" id="Layer_1" xmlns="http://www.w3.org/2000/svg" xmlns:xlink="http://www.w3.org/1999/xlink" x="0px" y="0px"
	 width="595.3px" height="595.3px" viewBox="0 0 595.3 595.3" enable-background="new 0 0 595.3 595.3" xml:space="preserve">
<g>
	<defs>
		<rect id="SVGID_1_" x="0" y="0" width="595.3" height="595.3"/>
	</defs>
	<clipPath id="SVGID_2_">
		<use xlink:href="#SVGID_1_"  overflow="visible"/>
	</clipPath>
	<rect x="0" y="0" clip-path="url(#SVGID_2_)" fill="#2E2259" width="595.3" height="595.3"/>
	<g clip-path="url(#SVGID_2_)">
		<path fill="#3D2F73" d="M41.8,177.7c5.4,7.6,6.7,16.9,12.7,23.9c15.4,17.8,29.5,6.9,43.6-4.2c12.2-9.6,21.2-8.8,34.2,1.2
			c9.2,7.1,7.9,13.5,10.8,24.8c4,15.7,12.2,19.4,28.9,22c11.7,1.9,22.1,0.9,32.3-4.4c14.9-7.7,25.6-16.4,42.9-11.2
			c15.1,4.6,20,21.5,37.6,17.3c17.8-4.3,32.6-20,51.8-21.3c11.2-0.7,17.9,7,27,11.1c12.6,5.7,23.2,11.9,37.3,12
			c12,0.1,47.7,0.8,53.1-12c1.4-3.4,1.8-6.5,1.8-9.5c0.2-9.1,10-14.9,17.9-10.4c9,5.1,25.5,1.1,29.4,15c2.1,7.5-0.1,15.3,9.4,18.1
			c9.4,2.9,17.5-4.2,18.1-12.3c0.4-5.3-5.7-10.8-4.8-16.7c0.4-3,6.9-13.9,8.8-16c9.1-10.2,14.6,1.2,25.2,5.8
			c16.5,7.2,22.4-3.6,35.2-9.4v-23.1c-3.5,3-6.9,5.7-10.6,6.8c-24.9,7.4-31.1-18.2-40.4-34.6c-19.8,0.2-21,0.5-24.2,17.3
			c-2.8,15.1-4.6,34.1-25.5,29.7c-24.7-5.2-7.9-28.4-19.6-43.5c-9.8-12.7-33.9-7.9-41.9,4.7c-10.6,16.6,6.7,45.6-4.6,60.8
			c-8.3,11.2-37.4,3-45-6.3c-8.1-9.8-4.2-32.4-14.5-42.9c-13.3-13.5-34.1-7.1-43.4,7.3c-7.8,12-7.8,15.8-24.8,16.9
			c-18.3,1.2-37.4-1.6-55.1-5.9c-13-3.2-25.6-8.2-39.3-5.3c-10.5,2.2-18.4,9.8-29.1,11.3c-15,2.1-44.3-5.9-34.8-25.8
			c6.2-13.1,26.1-10.4,38.5-8.7c7.8,1,79.1,9.3,54.8-20.1c-15.3-18.5-41.8,7.4-56.9,6.5c-15.4-0.9-17.7-17.7-27.5-27.1
			c-10.7-10.3-36.8-13.6-52.9-7.3c-16,6.2-32.7,23.5-53.3,14.2c-18.7-8.4-11.2-31-21.9-42c-3.9-4-14.8-4.5-23-2.7v76.1
			C15.5,159.1,33.7,166.1,41.8,177.7z"/>
		<path fill="#3D2F73" d="M78.4,25.3c16.5,8.2,6.6,38.5,25.3,48c36.6,18.7,31.5-35.1,64.8-30.2c14.1,2.1,11.2,8.1,18.9,16.4
			c15.3,16.6,35-3.7,53.6-9.4c29.3-9,93.6-33.2,106.4,10.9c9.3,32.1-38.1,18.1-54.2,18c-33.6-0.2-15.8,35.6,10.9,34.6
			c22-0.9,36.5-14,59.2-13.6c17.3,0.3,43.5,21.2,56.7-1.3c9.1-15.5-8.8-25-7.9-39.2c0.9-14.8,23.1-20.1,36-14.8
			c25.6,10.4,8,38.7,40.9,19.2c16.9-10,31.4-29.8,50.4-35.6c30.9-9.5,32.3,13,45.1,29.8c3.4,4.4,7,7.6,10.8,9.7V0H0v30.9
			c12.9-0.9,25.7-3.4,38.7-4.4C47.1,25.8,70,21.2,78.4,25.3z"/>
		<path fill="#3D2F73" d="M563,487.1c-14.7-4.3-36,0-51.7-0.1c-2.3,11.3-5.7,45.9-15.4,49.6c-11.7,4.4-19.3-5.9-22.4-15
			c-3.4-10,0.9-13.2-9-21.1c-5.5-4.3-16.6-9.8-22.8-13.8c-11-7.1-40.8-9.3-28.3,13.9c4.5,8.4,20.8,8.7,27.2,13.4
			c12.9,9.6,5.7,12.6,7.5,26.8c-12.1,5-41.5,15.1-54.5,5.7c-12.4-8.9-1.5-26-2.6-38.5c-1.2-12.9,1.8-10.1-9.6-13.5
			c-6.4-1.9-30-2.6-36.3,1.1c-16.1,9.4-1,27.3-10.3,41.7c-11.2,17.4-66.7,16-84.6,10.8c-15.7-4.6-18-17.7-31.4-24.3
			c-10.3-5.1-36.7-5.8-46.5,1.7c-7.1,5.3-7.6,18.2-15,23.7c-14.8,11-44.3,6.4-61.5,4.2c-23.7-2.9-45.1-9.3-61.4-27
			c-10.6-11.5,1.5-9.4-14-12.4c-6.4-1.2-13.4-0.6-20.4,0.5v80.7h595.3v-77.5c-1.2-0.9-2.3-1.8-3.4-2.7
			C580.9,505.3,576.7,491.1,563,487.1z"/>
		<path fill="#3D2F73" d="M28.4,392.7c6.7,8.2,6.3,17.1,17.9,22.3c10.3,4.7,33.7,3.7,42.2-4.3c5.4-5,5.8-13.8,9.9-19.9
			c5.8-8.7,14.5-18.9,26.2-12.3c10,5.6,3.4,15.7,19,15.1c9.1-0.3,14.8-5.4,24.1-4.6c17.7,1.6,51.9,21.5,15.4,21.6
			c6.5-14.8-19.2-14.7-26.8-8.5c-17.4,14.1,15.5,39.1,29.3,41.5c17.6,3.1,46.6,0.7,59.7-12c7.6-7.3,10.1-18.3,17.7-26
			c17.3-17.6,38.7-24.3,61.5-15c19.3,7.8,26.9,12.1,47.1,3.4c10.1-4.3,20-10.8,31.3-2.7c29.4,21-32.1,13.3-0.2,7.2
			c-25.1-13.1-24.8,23.9-2.3,32.8c17.9,7.1,37.4-1.5,52.8-10.8c8-4.8,13.1-9.8,19.1-16.5c3.3-3.6-0.3-7.6,4.3-10.2
			c12.5-7.1,31.4,9.2,43.7,9.2c16.5,0,20.8-13.7,34.4-16.6c14.5-3.1,27.6,3.1,40.7,8.1v-34c-22.2-5.5-47-16.2-61.5-10.6
			c-11.3,4.4-13.4,11.8-27.4,9.6c-13.4-2.1-16-6.8-13.3-20.7c1.6-8.2,7.8-13.8,5-22.5c-4.1-12.8-21.4-14.1-31.7-11.2
			c-14.1,3.9-14.5,6.8-11.2,20.5c4.2,17.6,12.4,25.5,4.9,44.2c-11,0.4-24.6,3-32.7-4.2c-1.9-1.7-1.3-8.6-4.4-11.8
			c-6-6.3-14.1-5.8-22.3-6.4c-49.8-3.7-95.7,16.2-146,9c-11.7-1.7-25.2-5.1-32-15.2c-4.8-7.1-0.4-12.5-2.6-17.6
			c-4.2-9.9-29.8-14-30.1,1.5c-0.2,12.1,36.9,25.8,18.8,37.2c-7.3,4.6-32.6-0.8-37.6-6.5c-6.8-7.9-2-19.2-5.1-29.5
			c-5.5-18.4-28.4-19.7-46.4-14.2c-22.8,7-16.9,34.3-40.9,35.5c-20.6,1.1-40.6-8.4-54.2-23.7c-5.9-6.6-10.1-22.8-16.2-27.5
			c-2.6-2-5.5-3-8.5-3.1v83.7C11,379.1,21.2,384,28.4,392.7z"/>
	</g>
	<g clip-path="url(#SVGID_2_)">
		<g>
			<g>
				<circle fill="#5C47B0" cx="313.8" cy="541.3" r="5.9"/>
			</g>
			<g>
				<circle fill="#5C47B0" cx="526.9" cy="474.1" r="4.2"/>
			</g>
			<g>
				<circle fill="#5C47B0" cx="293.6" cy="497" r="4.4"/>
			</g>
			<g>
				<circle fill="#5C47B0" cx="265.2" cy="512.3" r="2.9"/>
			</g>
			<g>
				<circle fill="#5C47B0" cx="494.4" cy="548.2" r="3.8"/>
			</g>
			<g>
				<circle fill="#5C47B0" cx="429" cy="583" r="4"/>
			</g>
			<g>
				<circle fill="#5C47B0" cx="458.5" cy="521.4" r="6.2"/>
			</g>
			<g>
				<circle fill="#5C47B0" cx="434.2" cy="494.3" r="3.5"/>
			</g>
			<g>
				<circle fill="#5C47B0" cx="489.9" cy="409.6" r="3.4"/>
			</g>
			<g>
				<circle fill="#5C47B0" cx="485.8" cy="387.1" r="3.6"/>
			</g>
			<g>
				<circle fill="#5C47B0" cx="420.8" cy="430.7" r="3.8"/>
			</g>
			<g>
				<circle fill="#5C47B0" cx="334.1" cy="499.4" r="5.9"/>
			</g>
			<g>
				<circle fill="#5C47B0" cx="435.9" cy="356.4" r="5.9"/>
			</g>
			<g>
				<circle fill="#5C47B0" cx="369.4" cy="398.9" r="3.4"/>
			</g>
			<g>
				<circle fill="#5C47B0" cx="380.7" cy="354.1" r="2.9"/>
			</g>
			<g>
				<circle fill="#5C47B0" cx="350.8" cy="364.3" r="3.2"/>
			</g>
			<g>
				<circle fill="#5C47B0" cx="272.5" cy="440" r="4.6"/>
			</g>
			<g>
				<circle fill="#5C47B0" cx="363.3" cy="321.6" r="5.5"/>
			</g>
			<g>
				<circle fill="#5C47B0" cx="254.2" cy="389.2" r="3.1"/>
			</g>
			<g>
				<circle fill="#5C47B0" cx="337.8" cy="282.3" r="5.4"/>
			</g>
			<g>
				<circle fill="#5C47B0" cx="320.6" cy="275.8" r="4.6"/>
			</g>
			<g>
				<circle fill="#5C47B0" cx="219.1" cy="335.1" r="5.1"/>
			</g>
			<g>
				<circle fill="#5C47B0" cx="227.7" cy="282.2" r="5.2"/>
			</g>
			<g>
				<circle fill="#5C47B0" cx="169.1" cy="303.9" r="5"/>
			</g>
			<g>
				<circle fill="#5C47B0" cx="247.1" cy="186.9" r="4.6"/>
			</g>
			<g>
				<circle fill="#5C47B0" cx="134" cy="252.7" r="3.8"/>
			</g>
			<g>
				<circle fill="#5C47B0" cx="121.7" cy="248" r="5"/>
			</g>
			<g>
				<circle fill="#5C47B0" cx="177.3" cy="165.3" r="5.7"/>
			</g>
			<g>
				<circle fill="#5C47B0" cx="94.4" cy="201.5" r="3.8"/>
			</g>
			<g>
				<circle fill="#5C47B0" cx="143.7" cy="113.1" r="5.8"/>
			</g>
			<g>
				<circle fill="#5C47B0" cx="109.1" cy="110" r="5.3"/>
			</g>
			<g>
				<circle fill="#5C47B0" cx="69.8" cy="131.2" r="5.4"/>
			</g>
			<g>
				<circle fill="#5C47B0" cx="91.4" cy="333.4" r="6.4"/>
			</g>
			<g>
				<circle fill="#5C47B0" cx="65.6" cy="99.8" r="4.6"/>
			</g>
			<g>
				<circle fill="#5C47B0" cx="53.2" cy="94.6" r="4.4"/>
			</g>
			<g>
				<circle fill="#5C47B0" cx="198.1" cy="35.5" r="4.1"/>
			</g>
			<g>
				<circle fill="#5C47B0" cx="50.3" cy="46" r="4.9"/>
			</g>
			<g>
				<circle fill="#5C47B0" cx="90.6" cy="7.3" r="3.8"/>
			</g>
			<g>
				<circle fill="#5C47B0" cx="75.1" cy="29.1" r="6.5"/>
			</g>
		</g>
		<g>
			<g>
				<circle fill="#5C47B0" cx="550.9" cy="170.7" r="3.5"/>
			</g>
			<g>
				<circle fill="#5C47B0" cx="480.7" cy="218.5" r="3.2"/>
			</g>
			<g>
				<circle fill="#5C47B0" cx="474.5" cy="168.8" r="5"/>
			</g>
			<g>
				<circle fill="#5C47B0" cx="426.8" cy="190.9" r="6.5"/>
			</g>
			<g>
				<circle fill="#5C47B0" cx="367.2" cy="205.9" r="4.5"/>
			</g>
			<g>
				<circle fill="#5C47B0" cx="382.4" cy="130.7" r="4.5"/>
			</g>
			<g>
				<circle fill="#5C47B0" cx="423.5" cy="73" r="3.9"/>
			</g>
			<g>
				<circle fill="#5C47B0" cx="393.5" cy="55.7" r="3.6"/>
			</g>
			<g>
				<circle fill="#5C47B0" cx="349.3" cy="87.5" r="4.6"/>
			</g>
			<g>
				<circle fill="#5C47B0" cx="271.6" cy="127.7" r="3.1"/>
			</g>
			<g>
				<circle fill="#5C47B0" cx="264.4" cy="100" r="6.1"/>
			</g>
			<g>
				<circle fill="#5C47B0" cx="341.3" cy="16.9" r="3.3"/>
			</g>
			<g>
				<circle fill="#5C47B0" cx="294.6" cy="25.8" r="3.3"/>
			</g>
		</g>
	</g>
	<g clip-path="url(#SVGID_2_)">
		<path fill="#AEAEAE" d="M578.5,226.4c8.1-0.9,11.8-10.1,7.5-16.7c-1.1-1.7-2.7-2.6-4.2-3.8c-2.2-1.7-1.4-4.7-1.6-7.1
			c-0.3-3.9-3.6-5.7-7-6.5c-3.2-0.8-7.2-1.3-10.2,0.3c-1.5,0.8-2.4,2.4-2.5,4.1c-0.1,1.6,0.4,3.8-0.2,5.5c-2.7,1.5-5,3.7-6.2,6.6
			c-1.3,3.1-0.9,7,1.1,9.6c2.8,3.6,7.3,2.9,11.2,4.2C570.5,224,573.8,227,578.5,226.4z"/>
		<path fill="#A0A0A2" d="M587.8,215c-0.4,0.6-0.8,1.1-1.4,1.5c-2.6,2.3-5.2,3.2-8.6,3.6c-3.7,0.4-7.4-0.8-10.8-2.3
			c-0.7-0.1-1.4-0.2-2.2-0.3c-3.8-0.6-7.4-2.3-10.1-5c-0.5-0.5-0.9-1-1.4-1.6c-0.4,2.6,0.2,5.4,1.8,7.4c2.8,3.6,7.3,2.9,11.2,4.2
			c4.2,1.4,7.5,4.4,12.1,3.8C584.5,225.7,588.1,220.4,587.8,215z"/>
		<path fill="#A0A0A2" d="M569.9,210.7c3.3,0,3.3-5.2,0-5.2C566.5,205.5,566.5,210.7,569.9,210.7z"/>
		<path fill="#A0A0A2" d="M565,200.9c3.3,0,3.3-5.2,0-5.2C561.7,195.7,561.7,200.9,565,200.9z"/>
		<path fill="#A0A0A2" d="M579.4,208.5c-1.2-0.7-2.8-0.3-3.5,0.9c-0.4,0.7-0.4,1.7-0.1,2.4c0.1,1.6,0.5,3.3,1.8,4.3
			c0.8,0.6,1.7,1,2.7,1.1c1.1,0.1,2-0.4,2.8-1.1c0.6-0.5,1-1.7,0.7-2.5C582.9,211.4,581.5,209.6,579.4,208.5z"/>
		<path fill="#A0A0A2" d="M563.3,212.9c-2.4,0-2.4,3.8,0,3.8C565.8,216.7,565.8,212.9,563.3,212.9z"/>
		<path fill="#A0A0A2" d="M563.5,207.6c2.4,0,2.4-3.8,0-3.8C561.1,203.8,561.1,207.6,563.5,207.6z"/>
		<path fill="#A0A0A2" d="M575.5,202.9c2.2,0,2.2-3.4,0-3.4C573.3,199.5,573.3,202.9,575.5,202.9z"/>
		<path fill="#A0A0A2" d="M572.4,217.5c2.2,0,2.2-3.4,0-3.4C570.2,214.1,570.2,217.5,572.4,217.5z"/>
	</g>
	<g clip-path="url(#SVGID_2_)">
		<path fill="#AEAEAE" d="M133.5,70.2c-2.4-3.3-2.9-7.7-5.5-10.8c-2.1-2.5-5.4-4.4-8.7-3.3c-1.5,0.5-2.6,1.8-3.5,3
			c-1.3,1.7-2.3,3.6-3.7,5.3c-1.1,1.4-2.3,2.7-3.5,3.9c-1.3,0.3-2.7,0.4-3.9,0.4c-4.1,0.2-8.1,0-12,1.6c-8.4,3.6-6.4,15.1-4,21.9
			c3,8.1,9.2,14.7,17.7,16.8c3.9,0.9,8.3,0.7,12-0.9c3.9-1.7,7-4.6,10.1-7.3c3-2.7,6.1-5.1,9.9-6.5c3.3-1.2,6.1-2.7,6.8-6.4
			C146.6,79.8,137.5,75.7,133.5,70.2z"/>
		<path fill="#A0A0A2" d="M140.7,77.4c0.5,3.3,0,6.6-1.5,9.7c-2.3,4.7-7.6,7.4-12.7,7.5c-0.3,0-0.5,0-0.8,0
			c-0.2,0.1-0.5,0.3-0.7,0.4c-0.4,0.3-0.8,0.6-1,0.8c-1,0.8-2,1.7-3.2,2.3c-3.9,2.1-8.3,3.3-12.8,3.3c-6.3,0-12.3-2-17.6-5.2
			c3.4,6.2,8.9,11.1,15.9,12.8c3.9,0.9,8.3,0.7,12-0.9c3.9-1.7,7-4.6,10.1-7.3c3-2.7,6.1-5.1,9.9-6.5c3.3-1.2,6.1-2.7,6.8-6.4
			C145.9,83.5,143.6,80.3,140.7,77.4z"/>
		<path fill="#A0A0A2" d="M98.4,83c0.4-0.6,0.5-1.3,0.3-2c-0.5-1.3-1.1-2.7-2.4-3.4c-1.4-0.8-3.6-0.7-4.6,0.7
			c-1.3,1.6-1.1,3.5,0.2,5.1c1,1.2,2.7,1.4,4.1,1.4C97.1,84.8,98.1,84.1,98.4,83z"/>
		<path fill="#A0A0A2" d="M115,79.2c3.3,0,3.3-5.2,0-5.2S111.7,79.2,115,79.2z"/>
		<path fill="#A0A0A2" d="M122.6,71.1c0.4,2.4,2.6,4.3,5.1,4.3c1.3,0,2.8-1.2,2.6-2.6c-0.2-1.6-0.7-2.8-1.7-4
			c-0.8-1-2.3-1.8-3.6-2.1c-1.4-0.3-2.8,0.4-3.2,1.8C121.6,69.3,121.9,70.4,122.6,71.1z"/>
		<path fill="#A0A0A2" d="M119.6,89.7c-1.7,0.6-3.6,0.2-5.3,0c-3.4-0.3-6.9,1.3-7.8,4.7c-0.5,1.9,1,3.2,2.6,3.2
			c0.1,0,0.2,0.1,0.3,0.1c1.7,0.5,3.1,0.1,4.6-0.6c1.5-0.6,2.7-0.5,4.2-0.5c2.9,0.1,8.2-2,5.9-5.8C123,89.3,121.1,89.2,119.6,89.7z"
			/>
		<path fill="#A0A0A2" d="M129.5,82.6c-3.3,0-3.3,5.2,0,5.2C132.8,87.8,132.8,82.6,129.5,82.6z"/>
		<path fill="#A0A0A2" d="M98.5,91.7c-3.3,0-3.3,5.2,0,5.2C101.9,96.9,101.9,91.7,98.5,91.7z"/>
		<path fill="#A0A0A2" d="M117.1,64.1c3.3,0,3.3-5.2,0-5.2C113.8,58.9,113.8,64.1,117.1,64.1z"/>
		<path fill="#A0A0A2" d="M103.7,73.4c-2.2,0-2.2,3.4,0,3.4S105.9,73.4,103.7,73.4z"/>
		<path fill="#A0A0A2" d="M106.3,81.6c-2.2,0-2.2,3.4,0,3.4C108.5,85,108.5,81.6,106.3,81.6z"/>
		<path fill="#A0A0A2" d="M125,78.5c-2.2,0-2.2,3.4,0,3.4C127.2,81.9,127.2,78.5,125,78.5z"/>
		<path fill="#A0A0A2" d="M113,87.6c2.2,0,2.2-3.4,0-3.4C110.8,84.2,110.8,87.6,113,87.6z"/>
	</g>
	<g clip-path="url(#SVGID_2_)">
		<path fill="#AEAEAE" d="M91.2,264.7c-7.5-3.5-15.8,1.8-18.3,8.9c-2.5,7,0.2,14,5,19.2c0.1,0.2,0.2,0.5,0.3,0.7
			c1.6,3.8,4.6,6.6,8.7,7.4c8.6,1.8,14.8-5.6,15.6-13.5c0.5-4.8-1.1-9.6-3.1-13.8C97.6,269.9,95,266.5,91.2,264.7z"/>
		<path fill="#A0A0A2" d="M98.3,292.4c-3.6,2.1-7.9,3.1-12,1.9c-1.4-0.4-2.6-1-3.8-1.8c-2.5-0.5-4.8-1.3-6.9-2.5
			c0.7,1,1.4,1.9,2.2,2.8c0.1,0.2,0.2,0.5,0.3,0.7c1.6,3.8,4.6,6.6,8.7,7.4c7.3,1.5,12.9-3.7,14.9-10.1
			C100.7,291.5,99.5,292,98.3,292.4z"/>
		<path fill="#A0A0A2" d="M84.4,275.9c0.8-2.2-0.5-4.8-2.6-5.5c-2-0.7-4,0.4-5.2,2c-1.3,1.8-1,4.1-0.5,6.1c0.3,1.4,1.9,2.2,3.2,1.8
			c0.4-0.1,0.7-0.3,1-0.5C82.1,279,83.6,277.9,84.4,275.9z M80.8,275.3C80.8,275.3,80.8,275.3,80.8,275.3
			C80.8,275.3,80.8,275.3,80.8,275.3C80.8,275.3,80.8,275.3,80.8,275.3z"/>
		<path fill="#A0A0A2" d="M88.3,286.8c-3.3,0-3.3,5.2,0,5.2S91.6,286.8,88.3,286.8z"/>
		<path fill="#A0A0A2" d="M91.4,273.4c-3.3,0-3.3,5.2,0,5.2C94.7,278.5,94.7,273.4,91.4,273.4z"/>
		<path fill="#A0A0A2" d="M88.1,269.8c2.2,0,2.2-3.4,0-3.4S85.9,269.8,88.1,269.8z"/>
		<path fill="#A0A0A2" d="M77.8,283.7c-2.2,0-2.2,3.4,0,3.4C80,287.1,80,283.7,77.8,283.7z"/>
		<path fill="#A0A0A2" d="M85.9,281.3c-2.2,0-2.2,3.4,0,3.4C88.1,284.7,88.1,281.3,85.9,281.3z"/>
		<path fill="#A0A0A2" d="M97.9,283.5c-2.2,0-2.2,3.4,0,3.4C100.1,286.9,100.1,283.5,97.9,283.5z"/>
	</g>
	<g clip-path="url(#SVGID_2_)">
		<path fill="#AEAEAE" d="M436,460.6c-3.6-0.4-5.3-4.5-3.4-7.5c0.5-0.8,1.2-1.2,1.9-1.7c1-0.8,0.6-2.1,0.7-3.2
			c0.1-1.7,1.6-2.5,3.2-2.9c1.5-0.4,3.2-0.6,4.6,0.1c0.7,0.4,1.1,1.1,1.1,1.8c0.1,0.7-0.2,1.7,0.1,2.5c1.2,0.7,2.2,1.6,2.8,3
			c0.6,1.4,0.4,3.1-0.5,4.3c-1.3,1.6-3.3,1.3-5,1.9C439.5,459.5,438.1,460.8,436,460.6z"/>
		<path fill="#A0A0A2" d="M431.8,455.5c0.2,0.3,0.4,0.5,0.6,0.7c1.2,1,2.3,1.4,3.9,1.6c1.6,0.2,3.3-0.4,4.8-1c0.3,0,0.7-0.1,1-0.1
			c1.7-0.3,3.3-1,4.5-2.3c0.2-0.2,0.4-0.5,0.6-0.7c0.2,1.2-0.1,2.4-0.8,3.3c-1.3,1.6-3.3,1.3-5,1.9c-1.9,0.6-3.4,2-5.4,1.7
			C433.2,460.3,431.6,457.9,431.8,455.5z"/>
		<path fill="#A0A0A2" d="M439.8,453.5c-1.5,0-1.5-2.3,0-2.3C441.3,451.2,441.3,453.5,439.8,453.5z"/>
		<path fill="#A0A0A2" d="M442,449.1c-1.5,0-1.5-2.3,0-2.3C443.5,446.8,443.5,449.1,442,449.1z"/>
		<path fill="#A0A0A2" d="M435.5,452.5c0.5-0.3,1.3-0.1,1.6,0.4c0.2,0.3,0.2,0.7,0,1.1c-0.1,0.7-0.2,1.5-0.8,1.9
			c-0.4,0.3-0.7,0.5-1.2,0.5c-0.5,0-0.9-0.2-1.3-0.5c-0.3-0.2-0.4-0.8-0.3-1.1C434,453.8,434.6,453,435.5,452.5z"/>
		<path fill="#A0A0A2" d="M442.8,454.5c1.1,0,1.1,1.7,0,1.7S441.7,454.5,442.8,454.5z"/>
		<path fill="#A0A0A2" d="M442.7,452.1c-1.1,0-1.1-1.7,0-1.7S443.8,452.1,442.7,452.1z"/>
		<path fill="#A0A0A2" d="M437.3,450c-1,0-1-1.5,0-1.5S438.3,450,437.3,450z"/>
		<path fill="#A0A0A2" d="M438.7,456.6c-1,0-1-1.5,0-1.5S439.7,456.6,438.7,456.6z"/>
	</g>
	<g clip-path="url(#SVGID_2_)">
		<path fill="#AEAEAE" d="M525.4,407.9c1.1-1.5,1.3-3.5,2.5-4.9c0.9-1.1,2.4-2,3.9-1.5c0.7,0.2,1.2,0.8,1.6,1.4
			c0.6,0.8,1.1,1.6,1.7,2.4c0.5,0.6,1,1.2,1.6,1.7c0.6,0.1,1.2,0.2,1.8,0.2c1.8,0.1,3.7,0,5.4,0.7c3.8,1.6,2.9,6.8,1.8,9.8
			c-1.3,3.6-4.2,6.6-8,7.5c-1.8,0.4-3.7,0.3-5.4-0.4c-1.7-0.8-3.1-2-4.6-3.3c-1.4-1.2-2.7-2.3-4.5-2.9c-1.5-0.5-2.8-1.2-3-2.9
			C519.5,412.2,523.6,410.4,525.4,407.9z"/>
		<path fill="#A0A0A2" d="M522.2,411.2c-0.2,1.5,0,3,0.7,4.4c1,2.1,3.4,3.3,5.7,3.4c0.1,0,0.2,0,0.3,0c0.1,0.1,0.2,0.1,0.3,0.2
			c0.2,0.1,0.4,0.3,0.5,0.4c0.4,0.3,0.9,0.8,1.4,1c1.8,1,3.7,1.5,5.8,1.5c2.9,0,5.5-0.9,7.9-2.3c-1.5,2.8-4,5-7.2,5.7
			c-1.8,0.4-3.7,0.3-5.4-0.4c-1.7-0.8-3.1-2-4.6-3.3c-1.4-1.2-2.7-2.3-4.5-2.9c-1.5-0.5-2.8-1.2-3-2.9
			C519.8,413.9,520.9,412.5,522.2,411.2z"/>
		<path fill="#A0A0A2" d="M541.2,413.7c-0.2-0.3-0.2-0.6-0.1-0.9c0.2-0.6,0.5-1.2,1.1-1.5c0.6-0.3,1.6-0.3,2.1,0.3
			c0.6,0.7,0.5,1.6-0.1,2.3c-0.4,0.5-1.2,0.6-1.9,0.6C541.8,414.5,541.4,414.2,541.2,413.7z"/>
		<path fill="#A0A0A2" d="M533.7,412c-1.5,0-1.5-2.3,0-2.3S535.2,412,533.7,412z"/>
		<path fill="#A0A0A2" d="M530.3,408.3c-0.2,1.1-1.2,1.9-2.3,1.9c-0.6,0-1.2-0.5-1.2-1.2c0.1-0.7,0.3-1.3,0.8-1.8
			c0.4-0.5,1-0.8,1.6-0.9c0.6-0.1,1.2,0.2,1.4,0.8C530.8,407.5,530.7,408,530.3,408.3z"/>
		<path fill="#A0A0A2" d="M531.7,416.7c0.8,0.3,1.6,0.1,2.4,0c1.5-0.1,3.1,0.6,3.5,2.1c0.2,0.9-0.5,1.4-1.1,1.4c0,0-0.1,0-0.1,0
			c-0.7,0.2-1.4,0-2.1-0.3c-0.7-0.3-1.2-0.2-1.9-0.2c-1.3,0.1-3.7-0.9-2.7-2.6C530.1,416.5,531,416.5,531.7,416.7z"/>
		<path fill="#A0A0A2" d="M527.2,413.5c1.5,0,1.5,2.3,0,2.3S525.7,413.5,527.2,413.5z"/>
		<path fill="#A0A0A2" d="M541.2,417.6c1.5,0,1.5,2.3,0,2.3C539.7,419.9,539.7,417.6,541.2,417.6z"/>
		<path fill="#A0A0A2" d="M532.8,405.2c-1.5,0-1.5-2.3,0-2.3S534.3,405.2,532.8,405.2z"/>
		<path fill="#A0A0A2" d="M538.8,409.4c1,0,1,1.5,0,1.5C537.8,410.9,537.8,409.4,538.8,409.4z"/>
		<path fill="#A0A0A2" d="M537.7,413.1c1,0,1,1.5,0,1.5C536.7,414.6,536.7,413.1,537.7,413.1z"/>
		<path fill="#A0A0A2" d="M529.2,411.7c1,0,1,1.5,0,1.5C528.2,413.2,528.2,411.7,529.2,411.7z"/>
		<path fill="#A0A0A2" d="M534.7,415.8c-1,0-1-1.5,0-1.5C535.7,414.2,535.7,415.8,534.7,415.8z"/>
	</g>
	<g clip-path="url(#SVGID_2_)">
		<path fill="#AEAEAE" d="M219.3,397.1c3.4-1.6,7.1,0.8,8.2,4c1.1,3.1-0.1,6.3-2.2,8.6c0,0.1-0.1,0.2-0.1,0.3
			c-0.7,1.7-2.1,3-3.9,3.3c-3.9,0.8-6.7-2.5-7-6.1c-0.2-2.1,0.5-4.3,1.4-6.2C216.4,399.5,217.6,397.9,219.3,397.1z"/>
		<path fill="#A0A0A2" d="M216.1,409.6c1.6,0.9,3.6,1.4,5.4,0.9c0.6-0.2,1.2-0.5,1.7-0.8c1.1-0.2,2.2-0.6,3.1-1.1
			c-0.3,0.4-0.6,0.9-1,1.3c0,0.1-0.1,0.2-0.1,0.3c-0.7,1.7-2.1,3-3.9,3.3c-3.3,0.7-5.8-1.6-6.7-4.5
			C215.1,409.2,215.6,409.4,216.1,409.6z"/>
		<path fill="#A0A0A2" d="M224.3,403.9c0.1,0.1,0.3,0.2,0.4,0.2c0.6,0.2,1.3-0.2,1.4-0.8c0.2-0.9,0.4-1.9-0.2-2.7
			c-0.5-0.7-1.4-1.2-2.3-0.9c-1,0.3-1.6,1.5-1.2,2.5C222.7,403.1,223.4,403.5,224.3,403.9z M224,401.8
			C224,401.9,224,401.9,224,401.8C224,401.9,224,401.9,224,401.8C224,401.9,224,401.9,224,401.8z"/>
		<path fill="#A0A0A2" d="M220.6,407c1.5,0,1.5,2.3,0,2.3C219.1,409.4,219.1,407,220.6,407z"/>
		<path fill="#A0A0A2" d="M219.2,401c1.5,0,1.5,2.3,0,2.3C217.7,403.3,217.7,401,219.2,401z"/>
		<path fill="#A0A0A2" d="M220.7,399.4c-1,0-1-1.5,0-1.5S221.7,399.4,220.7,399.4z"/>
		<path fill="#A0A0A2" d="M225.3,405.6c1,0,1,1.5,0,1.5S224.3,405.6,225.3,405.6z"/>
		<path fill="#A0A0A2" d="M221.7,404.6c1,0,1,1.5,0,1.5S220.7,404.6,221.7,404.6z"/>
		<path fill="#A0A0A2" d="M216.3,405.6c1,0,1,1.5,0,1.5S215.3,405.6,216.3,405.6z"/>
	</g>
	<g clip-path="url(#SVGID_2_)">
		<path fill="#AEAEAE" d="M450,58c3.4-1.6,7.1,0.8,8.2,4c1.1,3.1-0.1,6.3-2.2,8.6c0,0.1-0.1,0.2-0.1,0.3c-0.7,1.7-2.1,3-3.9,3.3
			c-3.9,0.8-6.7-2.5-7-6.1c-0.2-2.1,0.5-4.3,1.4-6.2C447.1,60.3,448.3,58.8,450,58z"/>
		<path fill="#A0A0A2" d="M446.8,70.4c1.6,0.9,3.6,1.4,5.4,0.9c0.6-0.2,1.2-0.5,1.7-0.8c1.1-0.2,2.2-0.6,3.1-1.1
			c-0.3,0.4-0.6,0.9-1,1.3c0,0.1-0.1,0.2-0.1,0.3c-0.7,1.7-2.1,3-3.9,3.3c-3.3,0.7-5.8-1.6-6.7-4.5C445.8,70,446.3,70.3,446.8,70.4z
			"/>
		<path fill="#A0A0A2" d="M455,64.8c0.1,0.1,0.3,0.2,0.4,0.2c0.6,0.2,1.3-0.2,1.4-0.8c0.2-0.9,0.4-1.9-0.2-2.7
			c-0.5-0.7-1.4-1.2-2.3-0.9c-1,0.3-1.6,1.5-1.2,2.5C453.4,63.9,454.1,64.4,455,64.8z M454.7,62.7C454.7,62.7,454.7,62.7,454.7,62.7
			C454.7,62.8,454.7,62.8,454.7,62.7C454.7,62.7,454.7,62.7,454.7,62.7z"/>
		<path fill="#A0A0A2" d="M451.3,67.9c1.5,0,1.5,2.3,0,2.3C449.8,70.2,449.8,67.9,451.3,67.9z"/>
		<path fill="#A0A0A2" d="M449.9,61.9c1.5,0,1.5,2.3,0,2.3C448.4,64.2,448.4,61.9,449.9,61.9z"/>
		<path fill="#A0A0A2" d="M451.4,60.3c-1,0-1-1.5,0-1.5C452.4,58.7,452.4,60.3,451.4,60.3z"/>
		<path fill="#A0A0A2" d="M456,66.5c1,0,1,1.5,0,1.5S455.1,66.5,456,66.5z"/>
		<path fill="#A0A0A2" d="M452.4,65.4c1,0,1,1.5,0,1.5S451.4,65.4,452.4,65.4z"/>
		<path fill="#A0A0A2" d="M447,66.4c1,0,1,1.5,0,1.5S446,66.4,447,66.4z"/>
	</g>
	<g clip-path="url(#SVGID_2_)">
		<g>
			<circle fill="#FFEFB1" cx="318.1" cy="215.1" r="127.3"/>
			<g>
				<path fill="#F7D9A0" d="M229.1,124.1c-25.5,34.4-31.5,81.5-11.7,122.8c28.5,59.5,99.9,84.5,159.4,56
					c41.3-19.8,66-60.3,67.7-103.1c6.4,52.7-20.8,105.8-71.3,130.1c-63.4,30.4-139.4,3.7-169.8-59.6
					C179.1,219.7,191.1,161.1,229.1,124.1z"/>
			</g>
			<g>
				<path fill="#FFBD85" d="M384.5,123.3c-0.5,5.6,1.3,10.6-1.3,15.9c-5.3,10.7-7.8,0.4-16.4,0.8c-12,0.6-9.1,16.5-12.4,24.3
					c-5.4,12.8-21.8,23.4-35.6,19.1c-6.8-2.1-8.5-4.7-15.2-0.3c-6.4,4.2-3.8,6.8-7.4,13.4c-6.4,11.6-11.4,3.8-19.5,2.3
					c-8.3-1.5-10.7,6-11.8,13.1c-0.9,5.7,0.7,7.9-6.4,11.9c-4.2,2.4-8.4,2.3-12.8,2.1c-6.2-0.2-11-5.4-10.8-11.6
					c0.1-2.2-0.1-4.4-1.3-6.4c-3.5-6-13.7-5.1-21.9-2.1c-5.3,2-11.1-1.1-12.5-6.6c-0.9-3.5-2.3-6.4-6.2-7c-0.1,0-0.2,0-0.4,0
					c1.7-9.4,4.5-18.6,8.3-27.4c4-1.6,7.9-2.5,11.1,0.1c6.4,5.2-5.3,19,5.7,16.9c6.4-1.2,5.5-7.2,14.9-3.3c3.9,1.7,6.9,6,10.7,7.3
					c15.2,5.2,11.7-12.8,20.8-17.6c5-2.6,14.6,1.8,18.5-0.5c2.9-1.8,1.9-8.3,6-10.6c2.8-1.6,6.6-0.8,9.6,0c4.1,1.1,6.8,5.5,10.1,6.3
					c5.4,1.4,15.7-3.2,19.7-7.6c5.7-6.2-0.9-13.1,5.8-18c3.4-2.5,7.7-1.1,10.8-3.8c3.6-3.2,1.4-8.2,4.8-11.4
					c5.1-4.8,18.4-1.3,14.6-11.1c-0.7-1.7-4.7-2.8-5.6-6c-0.7-2.3-0.8-4.7,0.6-6.8c0.7-1.1,1.8-2,3.2-2.9
					c10.1,3.8,19.8,8.8,28.7,15.1C387.3,112.6,385.2,116.1,384.5,123.3z"/>
				<path fill="#FFBD85" d="M341.2,108.5c0.4,7.8-5.8,13.8-12.8,12.4c-4.3-0.9-5.1-4.8-10.2-4.3c-3.3,0.3-5.1,2.7-7.1,4.2
					c-5.9,4.5-12.1,14.4-18.2,4.8c1.2-2.5,2.6-10-1.3-12.1c-6.1-3.3-8.7,4.6-10.4,7.8c-4.1,7.3-9.6,12.6-19.4,10.3
					c-2.7-0.6-5.2-3.5-8.5-3.1c-4.1,0.5-9.8,5.1-11.5,8.9c-2.7,6-0.5,26.4-14.3,20.7c-5.6-2.3-4.7-10.7-11-13.3
					c-1.4-0.5-2.7-0.7-4-0.6c12.2-18.3,29.4-33.7,50.6-43.9c26.7-12.8,55.6-15.5,82.4-9.6C338.7,95.3,340.7,100.1,341.2,108.5z"/>
				<path fill="#FFBD85" d="M261.2,312.3c3.5-2.8,3.6-7.7,6.6-10.4c7.8-6.9,19.9,4.8,28.3-3.4c4.1-4,0.6-10,3.4-14.4
					c2-3,11.3-6.6,14.8-5.4c5.3,1.8,4.2,9,8.5,11.4c6.2,3.6,23.6-5.9,26.8-11.8c2.7-4.9,0.6-8.9,5.2-12.8c3.6-3,12.8-5.7,17.4-5.3
					c3.9,0.4,6.7,3.7,10.5,4.3c5.8,0.8,10.1-2,15.3-4.7c4.1-2.2,6.4-3.5,9.6-6.8c3.5-3.7,6-12.1,9.9-14.7c6.4-4.4,15.8-0.9,23.3-3.7
					c1.1-0.4,2.1-0.8,3.1-1.3c-2,13.9-6.3,27.3-12.7,39.8c0,0-0.1,0-0.1,0c-6.7-1-8.5-3.8-15.3-1.9c-9.7,2.8-10.1,5.9-13.3,12.9
					c-3.1,7-9.5,9.1-16.3,12.2c-8.1,3.7-7.9,0.9-15.7-0.4c-9.7-1.6-13.9,6.4-18,13.7c-4.9,8.8-13,13.9-23,10
					c-5.3-2.1-5.8-4.8-11.2-4.1c-6.7,0.8-10.7,7.5-14.2,12.1c-2.5,3.3-7.4,9.4-12.3,12c-16.4-3.4-31.9-10.1-45.8-19.6
					c1.1-1.7,2-3.1,2.8-3.6C252.8,314.2,257.2,315.6,261.2,312.3z"/>
				<path fill="#FFBD85" d="M201.1,249.6c10.7-1.7,8.5,16.4,19,18.3c16.2,3,6-15.8,12.7-22.9c11.2-12,30,8.1,43.9-0.9
					c12.5-8,16.3-32.2,36-29.7c6.8,0.9,14.6,8.2,21.2-0.5c2.6-3.4,1.1-7.6,3.8-11c2.4-3,11.4-5.9,15-5.9c3.5,0,6.9,1.9,10.5,2.5
					c7.3,1.2,15.1,0,21.9-2.7c6.4-2.5,13.1-4.8,16-10.9c1.8-3.7,0.1-7.6,3-10.9c6-6.6,16.2,0.4,23.3-5.1c2.4-1.8,4.5-4.7,6.3-7.9
					c4.6,10.1,7.8,20.5,9.7,30.9c-11.3,5.3-13.7,18.9-25.5,22.5c-7.1-9-12-7.7-21.1-2.4c-11.4,6.6-8.6,18.4-18,25.3
					c-11.1,8.2-18.5-3.8-28.8-3.6c-12.8,0.2-13.1,14.6-21.9,19.3c-5.8,3.1-10.9,0.3-17,1.7c-6.7,1.5-14.8,6.8-20.8,10.1
					c-11.7,6.4-20.8,13.1-35.1,12.4c-5.9-0.3-10.7-2.3-15.9,0.3c-6,3-8.5,11.2-15,14.2c-2.3,1.1-4.2,1.4-5.8,1.3
					c-5.8-7.3-10.8-15.3-15-24.1c-2.9-6-5.3-12.2-7.2-18.4C197.6,250.7,199.2,249.9,201.1,249.6z"/>
			</g>
			<g>
				<path fill="#EDA86B" d="M199.4,199.1c-0.9-3.5-2.3-6.4-6.2-7c-0.1,0-0.2,0-0.4,0c1.1-5.9,2.6-11.7,4.5-17.4c0,0,0,0,0,0
					c0.7-2.2,1.6-4.5,2.4-6.7c0-0.1,0-0.1,0.1-0.2c0.4-1.1,0.9-2.1,1.3-3.1c0,0,0,0,0-0.1c3.1-1.2,6-2,8.7-1.2
					c-3.8,13.7-5.1,28.1-3.8,42.5C202.9,205.1,200.3,202.6,199.4,199.1z"/>
				<path fill="#EDA86B" d="M212.3,144.2c4.6-6.9,9.9-13.3,15.8-19.2c0,0,0,0,0,0c0.3-0.3,0.6-0.5,0.8-0.8
					c-4.8,6.5-8.9,13.5-12.3,20.8c-0.1,0-0.2-0.1-0.3-0.1C215,144.3,213.6,144.1,212.3,144.2z"/>
				<path fill="#EDA86B" d="M431.4,273c0,0-0.1,0-0.1,0c-6.1-0.9-8.2-3.3-13.6-2.3c8.6-10.6,15.4-22.6,19.9-35.3
					c1.2-0.2,2.3-0.4,3.4-0.8c1.1-0.4,2.1-0.8,3.1-1.3c0,0.1,0,0.1,0,0.2c-0.1,0.7-0.2,1.4-0.3,2.1c0,0.1,0,0.3-0.1,0.4
					c-0.1,0.8-0.3,1.6-0.4,2.3c0,0.1,0,0.1,0,0.2C440.9,250.5,436.9,262.1,431.4,273z"/>
				<path fill="#EDA86B" d="M271.1,333.3c-0.1,0-0.1-0.1-0.2-0.1c-0.9-0.4-1.8-0.7-2.6-1.1c-0.1,0-0.2-0.1-0.3-0.1
					c-0.8-0.4-1.7-0.7-2.5-1.1c-0.1-0.1-0.2-0.1-0.3-0.2c-0.8-0.4-1.6-0.8-2.4-1.1c-0.1-0.1-0.3-0.1-0.4-0.2
					c-0.8-0.4-1.6-0.8-2.4-1.2c-0.1-0.1-0.3-0.1-0.4-0.2c-0.8-0.4-1.5-0.8-2.3-1.2c-0.2-0.1-0.3-0.2-0.5-0.3
					c-0.7-0.4-1.5-0.8-2.2-1.3c-0.2-0.1-0.3-0.2-0.5-0.3c-0.7-0.4-1.5-0.9-2.2-1.3c-0.1-0.1-0.3-0.2-0.4-0.3c-0.8-0.5-1.6-1-2.3-1.5
					c-0.1-0.1-0.2-0.1-0.3-0.2c-0.9-0.6-1.7-1.1-2.6-1.7c1.1-1.7,2-3.1,2.8-3.6c3.8-2.2,8.3-0.9,12.3-4.1c3.5-2.8,3.6-7.7,6.6-10.4
					c0.5-0.4,1-0.8,1.6-1.1c24.7,13,53.7,17.2,81.9,10.9c-5,7.4-12.6,11.4-21.7,7.8c-5.3-2.1-5.8-4.8-11.2-4.1
					c-6.7,0.8-10.7,7.5-14.2,12.1c-2.5,3.3-7.4,9.4-12.3,12c-3.1-0.6-6.1-1.4-9.1-2.3c0,0,0,0,0,0c-1-0.3-2-0.6-3-0.9c0,0,0,0-0.1,0
					c-1-0.3-1.9-0.6-2.9-0.9c0,0-0.1,0-0.1,0c-0.9-0.3-1.9-0.7-2.8-1c-0.1,0-0.1,0-0.2-0.1C272.9,334,272,333.7,271.1,333.3z"/>
				<path fill="#EDA86B" d="M224.2,292.9c-2.3,1.1-4.2,1.4-5.8,1.3c0,0,0,0,0,0c-0.7-0.9-1.4-1.8-2-2.7c-0.1-0.1-0.2-0.2-0.3-0.4
					c-0.6-0.8-1.2-1.6-1.7-2.4c-0.1-0.2-0.3-0.4-0.4-0.6c-0.5-0.7-1-1.5-1.5-2.2c-0.2-0.3-0.3-0.5-0.5-0.8c-0.5-0.7-0.9-1.4-1.3-2.1
					c-0.2-0.3-0.4-0.6-0.6-0.9c-0.4-0.7-0.8-1.3-1.2-2c-0.2-0.3-0.4-0.6-0.6-1c-0.4-0.7-0.8-1.3-1.2-2c-0.2-0.3-0.4-0.7-0.6-1
					c-0.4-0.7-0.8-1.4-1.1-2.2c-0.2-0.3-0.3-0.6-0.5-0.9c-0.5-1-1-2.1-1.5-3.1c-0.4-0.8-0.7-1.5-1.1-2.3c-0.2-0.3-0.3-0.7-0.5-1
					c-0.2-0.4-0.4-0.9-0.6-1.3c-0.2-0.5-0.4-0.9-0.6-1.4c-0.1-0.3-0.3-0.6-0.4-1c-0.2-0.5-0.4-1-0.6-1.6c-0.1-0.2-0.2-0.5-0.3-0.7
					c-0.2-0.6-0.4-1.2-0.7-1.7c-0.1-0.2-0.1-0.4-0.2-0.6c-0.2-0.6-0.4-1.2-0.7-1.8c-0.1-0.2-0.1-0.3-0.2-0.5
					c-0.2-0.6-0.4-1.3-0.6-1.9c0-0.1-0.1-0.3-0.1-0.4c-0.2-0.6-0.4-1.3-0.6-1.9c0-0.1-0.1-0.2-0.1-0.3c1.4-1,3-1.8,4.9-2.1
					c10.7-1.7,8.5,16.4,19,18.3c4.8,0.9,7.3-0.1,8.6-2.2c3.3,4.6,7,8.9,10.8,12.8c-0.1,0-0.2,0.1-0.2,0.1
					C233.2,281.7,230.7,289.8,224.2,292.9z"/>
			</g>
		</g>
		<g>
			<path fill="#FAC668" d="M83.3,327.7c17.1,35.7,141.7,11.5,278.2-54.1S594.9,126.1,577.7,90.4s-141.7-11.5-278.2,54.1
				S66.2,292.1,83.3,327.7z M95.6,318.6c-15.3-31.9,76.9-108,205.9-170s246.1-86.3,261.4-54.4c15.3,31.9-76.9,108-205.9,170
				S110.9,350.5,95.6,318.6z"/>
			<path fill="#EBB352" d="M95.6,318.6c15.3,31.9,132.4,7.6,261.4-54.4s221.3-138.1,205.9-170c-15.3-31.9-132.4-7.6-261.4,54.4
				S80.3,286.6,95.6,318.6z M106.6,311.9c-14.3-29.7,73.6-101.6,196.3-160.5s233.7-82.5,248-52.8s-73.6,101.6-196.3,160.5
				S120.8,341.6,106.6,311.9z"/>
			<path fill="#D49D3D" d="M106.6,311.9c14.3,29.7,125.3,6.1,248-52.8S565.1,128.3,550.9,98.6s-125.3-6.1-248,52.8
				S92.3,282.1,106.6,311.9z M120,305.4c-13.4-27.9,69.2-95.5,184.4-150.8S524,77.1,537.4,105S468.3,200.5,353,255.8
				S133.4,333.4,120,305.4z"/>
			<path fill="#EBB960" d="M120,305.4c13.4,27.9,117.7,5.7,233-49.6S550.8,133,537.4,105s-117.7-5.7-233,49.6S106.6,277.5,120,305.4
				z M136.1,297.7c-12.4-25.8,63.8-88.1,170.2-139.2S509,87,521.4,112.8c12.4,25.8-63.8,88.1-170.2,139.2S148.5,323.5,136.1,297.7z"
				/>
		</g>
		<g>
			<path fill="#FFEFB1" d="M196.2,251.7c-17.8-59,9.5-123.9,66.8-151.4s125-8.3,159.9,42.6L196.2,251.7z"/>
			<g>
				<path fill="#F7D9A0" d="M215.4,242.5l-19.2,9.2c-13.8-45.8-0.5-95,32.9-127.7C204.5,157.3,198,202.3,215.4,242.5z"/>
			</g>
			<g>
				<path fill="#FFBD85" d="M384.5,123.3c-0.5,5.6,1.3,10.6-1.3,15.9c-5.3,10.7-7.8,0.4-16.4,0.8c-12,0.6-9.1,16.5-12.4,24.3
					c-5.4,12.8-21.8,23.4-35.6,19.1c-6.8-2.1-8.5-4.7-15.2-0.3c-6.4,4.2-3.8,6.8-7.4,13.4c-6.4,11.6-11.4,3.8-19.5,2.3
					c-8.3-1.5-10.7,6-11.8,13.1c-0.5,3.3-0.2,5.5-1.2,7.5l-13.7,6.6c-1.4,0-2.8,0-4.2,0c-6.2-0.2-11-5.4-10.8-11.6
					c0.1-2.2-0.1-4.4-1.3-6.4c-3.5-6-13.7-5.1-21.9-2.1c-5.3,2-11.1-1.1-12.5-6.6c-0.9-3.5-2.3-6.4-6.2-7c-0.1,0-0.2,0-0.4,0
					c1.7-9.4,4.5-18.6,8.3-27.4c4-1.6,7.9-2.5,11.1,0.1c6.4,5.2-5.3,19,5.7,16.9c6.4-1.2,5.5-7.2,14.9-3.3c3.9,1.7,6.9,6,10.7,7.3
					c15.2,5.2,11.7-12.8,20.8-17.6c5-2.6,14.6,1.8,18.5-0.5c2.9-1.8,1.9-8.3,6-10.6c2.8-1.6,6.6-0.8,9.6,0c4.1,1.1,6.8,5.5,10.1,6.3
					c5.4,1.4,15.7-3.2,19.7-7.6c5.7-6.2-0.9-13.1,5.8-18c3.4-2.5,7.7-1.1,10.8-3.8c3.6-3.2,1.4-8.2,4.8-11.4
					c5.1-4.8,18.4-1.3,14.6-11.1c-0.7-1.7-4.7-2.8-5.6-6c-0.7-2.3-0.8-4.7,0.6-6.8c0.7-1.1,1.8-2,3.2-2.9
					c10.1,3.8,19.8,8.8,28.7,15.1C387.3,112.6,385.2,116.1,384.5,123.3z"/>
				<path fill="#FFBD85" d="M341.2,108.5c0.4,7.8-5.8,13.8-12.8,12.4c-4.3-0.9-5.1-4.8-10.2-4.3c-3.3,0.3-5.1,2.7-7.1,4.2
					c-5.9,4.5-12.1,14.4-18.2,4.8c1.2-2.5,2.6-10-1.3-12.1c-6.1-3.3-8.7,4.6-10.4,7.8c-4.1,7.3-9.6,12.6-19.4,10.3
					c-2.7-0.6-5.2-3.5-8.5-3.1c-4.1,0.5-9.8,5.1-11.5,8.9c-2.7,6-0.5,26.4-14.3,20.7c-5.6-2.3-4.7-10.7-11-13.3
					c-1.4-0.5-2.7-0.7-4-0.6c12.2-18.3,29.4-33.7,50.6-43.9c26.7-12.8,55.6-15.5,82.4-9.6C338.7,95.3,340.7,100.1,341.2,108.5z"/>
				<path fill="#FFBD85" d="M196.2,251.7C196.2,251.7,196.2,251.7,196.2,251.7c1.1-0.9,2.4-1.5,3.9-1.9L196.2,251.7z"/>
			</g>
			<g>
				<path fill="#EDA86B" d="M199.4,199.1c-0.9-3.5-2.3-6.4-6.2-7c-0.1,0-0.2,0-0.4,0c1.1-5.9,2.6-11.7,4.5-17.4c0,0,0,0,0,0
					c0.7-2.2,1.6-4.5,2.4-6.7c0-0.1,0-0.1,0.1-0.2c0.4-1.1,0.9-2.1,1.3-3.1c0,0,0,0,0-0.1c3.1-1.2,6-2,8.7-1.2
					c-3.8,13.7-5.1,28.1-3.8,42.5C202.9,205.1,200.3,202.6,199.4,199.1z"/>
				<path fill="#EDA86B" d="M212.3,144.2c4.6-6.9,9.9-13.3,15.8-19.2c0,0,0,0,0,0c0.3-0.3,0.6-0.5,0.8-0.8
					c-4.8,6.5-8.9,13.5-12.3,20.8c-0.1,0-0.2-0.1-0.3-0.1C215,144.3,213.6,144.1,212.3,144.2z"/>
				<path fill="#EDA86B" d="M196.2,251.7C196.2,251.7,196.2,251.7,196.2,251.7c1.1-0.9,2.4-1.5,3.9-1.9L196.2,251.7z"/>
			</g>
		</g>
	</g>
	<path clip-path="url(#SVGID_2_)" fill="#EBEBEB" d="M322.4,562c-4.8,0-9.5,0.5-14,1.5c-11.5-9-25.9-14.4-41.7-14.4
		c-3.3,0-6.5,0.2-9.7,0.7c-5.1-11.7-13.5-21.6-24-28.7c-5.5-31.3-33-55.1-66-55.2c-7.3-29-33.6-50.5-65-50.7
		c-7.8-14.2-20.6-25.3-36-30.9c-1.2-11-5.1-21.3-11.1-30.1c0.6-3.6,0.9-7.3,0.9-11.1c0-19.1-8.1-36.3-21-48.5
		c10-11.7,16-26.8,16-43.3c0-30.1-20-55.6-47.5-64C26.8,176.8,43,153.4,43,126.3c0-9.9-2.2-19.2-6-27.6c11.8-12.1,19-28.5,19-46.6
		C56,31,46.2,12.3,30.9,0H0v498.6c11.6,9.6,26.4,15.3,42.6,15.4c11.4,20.8,33.5,34.9,58.9,35c4.1,16.2,14.1,30.1,27.6,39.2
		c0.4,2.4,1,4.8,1.7,7.1h249.8C368.9,575.4,347.2,562,322.4,562z"/>
	<path clip-path="url(#SVGID_2_)" fill="#EBEBEB" d="M595.3,595.3v-60.6c-11.5-9.2-26.1-14.7-42-14.7c-19.7,0-37.5,8.5-49.8,22
		c-14.5,1-27.8,6.7-38.3,15.5c-3.1-0.4-6.2-0.7-9.4-0.7c-26.9,0-50,15.7-60.8,38.5H595.3z"/>
	<g clip-path="url(#SVGID_2_)">
		<polygon fill="#1B3B4E" points="393.6,490.7 442.1,451.4 412.9,420.5 380.7,465.8 		"/>
		<g>
			<path fill="#173040" d="M389.9,452.8l-9.2,13l12.9,24.9l48.5-39.3l-7.4-7.9l-31.5,31.1C402.1,469.3,395.8,460.1,389.9,452.8z"/>
		</g>
		<g>
			<g>
				<g>
					<path fill="#FF7D00" d="M403.3,518.8c28.1-9.7,22.5,37.9,22.5,37.9S381.3,538.9,403.3,518.8z"/>
					<path fill="#F6921E" d="M403.3,518.8c23-7.9,18.4,31,18.4,31S385.3,535.2,403.3,518.8z"/>
					<path fill="#FAAF40" d="M403.3,518.8c17.6-6.1,14.1,23.7,14.1,23.7S389.6,531.3,403.3,518.8z"/>
					<path fill="#F9EC31" d="M403.3,518.8c13.1-4.5,10.5,17.7,10.5,17.7S393,528.2,403.3,518.8z"/>
				</g>
				<g>
					<path fill="#FFFFFF" d="M354.6,437L354.6,437C354.6,437,354.6,437,354.6,437C354.6,437,354.6,437,354.6,437L354.6,437
						c0.9,0.1,48,7,53.8,72.4l-8,4.7l0,0l-8,4.7C337.9,482.5,354.3,437.8,354.6,437z"/>
					<polygon fill="#1B3B4E" points="401.9,516.5 401.9,516.5 411.5,510.8 411.3,517.2 404.7,521.1 404.6,521.1 398,525.1 
						392.3,522.2 					"/>
					<polygon fill="#EE512F" points="392.5,518.9 400.5,514.1 400.5,514.1 408.4,509.4 411.5,510.8 401.9,516.5 401.9,516.5 
						392.3,522.2 					"/>
					<g>
						<path fill="#DBDBDA" d="M396.8,516.3l-4.3,2.6c-54.6-36.3-38.2-81.1-37.9-81.9l0,0c0,0,0,0,0,0c0,0,0,0,0,0l0,0
							C354.6,437,345.9,484.8,396.8,516.3z"/>
						<polygon fill="#0A151C" points="400.3,523.7 398,525.1 392.3,522.2 397.2,519.2 						"/>
						<polygon fill="#DE3D15" points="396.8,516.3 397.2,519.2 392.3,522.2 392.5,518.9 						"/>
					</g>
					<g>
						<path fill="#EE512F" d="M354.6,437C354.6,437,354.6,437,354.6,437C354.6,437,354.6,437,354.6,437L354.6,437
							c0.5,0.1,13.5,2,26.8,13.1c-3.6,3.7-7.9,7.2-12.9,10.2c-5,3-10.1,5.1-15.1,6.5C349.9,449.8,354.4,437.4,354.6,437L354.6,437z"
							/>
					</g>
					<g>
						<polygon fill="#C82127" points="354.6,437 354.6,437 354.6,437 						"/>
						<path fill="#DE3D15" d="M354.6,437c0,0-1.9,15.2,2.3,28.7c-1.2,0.4-2.3,0.8-3.5,1.1C349.9,449.8,354.4,437.4,354.6,437z"/>
					</g>
				</g>
			</g>
		</g>
		<polygon fill="#1B3B4E" points="523.5,413.5 465.8,437.3 452.6,396.9 507.8,390.2 		"/>
		<g>
			<path fill="#173040" d="M492,392.1l15.8-1.9l15.7,23.2l-57.7,23.8l-3.4-10.3l42.4-12.8C500.6,410.7,495.6,400.8,492,392.1z"/>
		</g>
		<g>
			<g>
				<g>
					<path fill="#FF7D00" d="M466.5,465.5c62.1-21.4,49.8,83.7,49.8,83.7S418.1,509.8,466.5,465.5z"/>
					<path fill="#F6921E" d="M466.5,465.5c50.8-17.5,40.7,68.5,40.7,68.5S426.9,501.8,466.5,465.5z"/>
					<path fill="#FAAF40" d="M466.5,465.5c38.8-13.4,31.1,52.3,31.1,52.3S436.2,493.2,466.5,465.5z"/>
					<path fill="#F9EC31" d="M466.5,465.5c29-10,23.2,39.1,23.2,39.1S443.9,486.2,466.5,465.5z"/>
				</g>
				<g>
					<path fill="#FFFFFF" d="M359,284.6L359,284.6C359,284.6,359,284.6,359,284.6C359,284.6,359,284.6,359,284.6L359,284.6
						c1.9,0.3,106.1,15.6,119,160l-17.6,10.5l0,0l-17.6,10.5C322,385.3,358.3,286.4,359,284.6z"/>
					<polygon fill="#1B3B4E" points="463.5,460.3 463.5,460.3 484.7,447.7 484.4,461.8 469.6,470.6 469.6,470.7 454.8,479.4 
						442.3,472.9 					"/>
					<polygon fill="#EE512F" points="442.7,465.6 460.4,455.1 460.4,455.1 478,444.6 484.7,447.7 463.5,460.3 463.5,460.3 
						442.3,472.9 					"/>
					<g>
						<path fill="#DBDBDA" d="M452.3,459.9l-9.6,5.7C322,385.3,358.3,286.4,359,284.6l0,0c0,0,0,0,0,0c0,0,0,0,0,0l0,0
							C359,284.6,339.7,390.2,452.3,459.9z"/>
						<polygon fill="#173040" points="460.1,476.3 454.8,479.4 442.3,472.9 453.1,466.5 						"/>
						<polygon fill="#DE3D15" points="452.3,459.9 453.1,466.5 442.3,472.9 442.7,465.6 						"/>
					</g>
					<g>
						<path fill="#EE512F" d="M359,284.6C359,284.6,359,284.6,359,284.6C359,284.6,359,284.6,359,284.6L359,284.6
							c1,0.1,29.9,4.4,59.2,29c-8,8.3-17.6,16-28.6,22.5c-11,6.5-22.3,11.3-33.4,14.3C348.5,313,358.6,285.6,359,284.6L359,284.6z"
							/>
					</g>
					<g>
						<polygon fill="#C82127" points="359,284.6 359,284.6 359,284.6 						"/>
						<path fill="#DE3D15" d="M359,284.6c0,0-4.2,33.7,5,63.5c-2.6,0.9-5.2,1.7-7.7,2.4C348.5,313,358.6,285.6,359,284.6z"/>
					</g>
				</g>
			</g>
			<circle fill="#DE3D15" cx="407.4" cy="367.9" r="25.7"/>
			<circle fill="#EE512F" cx="407.4" cy="367.9" r="24"/>
			<circle fill="#173040" cx="407.4" cy="367.9" r="17.4"/>
			<g>
				<path fill="#F2F2F2" d="M417.2,357.3c3.7,2.7,5.7,7.5,4.7,12.1c-0.5,2.5-4.4,2.1-3.9-0.4c0.7-3.3-0.5-6.5-3.2-8.5
					C412.8,359,415.1,355.8,417.2,357.3z"/>
				<path fill="#F2F2F2" d="M411.2,354.2c2.4,0.9,0.9,4.6-1.5,3.7S408.8,353.3,411.2,354.2z"/>
			</g>
		</g>
		<g>
			<g>
				<g>
					<path fill="#FF7D00" d="M543.6,435.4c28.1-9.7,22.5,37.9,22.5,37.9S521.7,455.4,543.6,435.4z"/>
					<path fill="#F6921E" d="M543.6,435.4c23-7.9,18.4,31,18.4,31S525.6,451.8,543.6,435.4z"/>
					<path fill="#FAAF40" d="M543.6,435.4c17.6-6.1,14.1,23.7,14.1,23.7S529.9,447.9,543.6,435.4z"/>
					<path fill="#F9EC31" d="M543.6,435.4c13.1-4.5,10.5,17.7,10.5,17.7S533.3,444.7,543.6,435.4z"/>
				</g>
				<g>
					<path fill="#FFFFFF" d="M494.9,353.5L494.9,353.5C494.9,353.5,494.9,353.5,494.9,353.5C494.9,353.5,494.9,353.5,494.9,353.5
						L494.9,353.5c0.9,0.1,48,7,53.8,72.4l-8,4.7l0,0l-8,4.7C478.2,399.1,494.6,354.3,494.9,353.5z"/>
					<polygon fill="#1B3B4E" points="542.2,433 542.2,433 551.8,427.3 551.7,433.7 545,437.7 545,437.7 538.3,441.7 532.6,438.7 
											"/>
					<polygon fill="#EE512F" points="532.8,435.4 540.8,430.7 540.8,430.7 548.8,425.9 551.8,427.3 542.2,433 542.2,433 
						532.6,438.7 					"/>
					<g>
						<path fill="#DBDBDA" d="M537.2,432.8l-4.3,2.6c-54.6-36.3-38.2-81.1-37.9-81.9l0,0c0,0,0,0,0,0c0,0,0,0,0,0l0,0
							C494.9,353.5,486.2,401.3,537.2,432.8z"/>
						<polygon fill="#0A151C" points="540.7,440.3 538.3,441.7 532.6,438.7 537.5,435.8 						"/>
						<polygon fill="#DE3D15" points="537.2,432.8 537.5,435.8 532.6,438.7 532.8,435.4 						"/>
					</g>
					<g>
						<path fill="#EE512F" d="M494.9,353.5C494.9,353.5,494.9,353.5,494.9,353.5C494.9,353.5,494.9,353.5,494.9,353.5L494.9,353.5
							c0.5,0.1,13.5,2,26.8,13.1c-3.6,3.7-7.9,7.2-12.9,10.2c-5,3-10.1,5.1-15.1,6.5C490.2,366.4,494.8,354,494.9,353.5L494.9,353.5
							z"/>
					</g>
					<g>
						<polygon fill="#C82127" points="494.9,353.5 494.9,353.5 494.9,353.5 						"/>
						<path fill="#DE3D15" d="M494.9,353.5c0,0-1.9,15.2,2.3,28.7c-1.2,0.4-2.3,0.8-3.5,1.1C490.2,366.4,494.8,354,494.9,353.5z"/>
					</g>
				</g>
			</g>
		</g>
	</g>
	<path clip-path="url(#SVGID_2_)" fill="#FFFFFF" d="M569.9,509.6c0,2.5,0.1,4.9,0.4,7.3c-19.3,7.7-34.1,23.9-39.8,44
		c-1.5-0.1-2.9-0.2-4.4-0.2c-21.6,0-40.7,10.1-53.1,25.7c-9.2-6.7-20.2-11-32.1-12.4c-12.4-14-30.5-22.8-50.7-22.8
		c-25.9,0-48.3,14.5-59.6,35.7c-12.1-11.6-28.6-18.8-46.8-18.8c-3.9,0-7.7,0.3-11.3,1c-10-24.5-34.2-41.7-62.4-41.7
		c-9.8,0-19.2,2.1-27.6,5.9c-5.8-4.2-12.3-7.6-19.4-9.8c-6-27.1-28.6-48.1-56.7-51.9c0-0.6,0-1.1,0-1.7c0-30.2-20.2-55.8-47.9-64.1
		c-6.4-11.7-16.2-21.3-28.2-27.5c5.5-9.7,8.7-20.9,8.7-32.9c0-24-12.7-45-31.8-56.8c14.4-8.9,25.2-23.1,29.6-39.9
		C48.7,236.7,56,220.2,56,202c0-26.3-15.3-49-37.5-60c6.6-10.3,10.4-22.6,10.4-35.7c0-13-3.7-25.1-10.1-35.3
		C38.7,59.4,52,37.9,52,13.4c0-4.6-0.5-9-1.4-13.4H0v595.3h595.3V457.2C579.8,469.5,569.9,488.4,569.9,509.6z"/>
</g>
</svg>
